<svg id="Capa_1" enable-background="new 0 0 512 512" height="512" viewBox="0 0 512 512" width="512" xmlns="http://www.w3.org/2000/svg"><g><path d="m467.165 202.482c-.196.196-.391.381-.618.577l-43.371 41.063c-6.974 6.604-17.534 5.419-23.2-1.185l8.489-33.965 22.417-89.688c8.849-6.264 21.696-2.009 24.683 8.89l16.04 58.411c1.566 5.709-.134 11.828-4.44 15.897z" fill="#da4a54"/><path d="m466.547 203.059-43.371 41.063c-6.974 6.604-17.534 5.419-23.2-1.185l8.489-33.965c8.056 18.162 47.77 3.379 58.082-5.913z" fill="#c32430"/><path d="m112.023 242.939c-5.666 6.603-16.225 7.788-23.2 1.185l-43.988-41.64c-4.306-4.069-6.006-10.188-4.44-15.896l16.04-58.411c2.988-10.899 15.834-15.154 24.683-8.89" fill="#c32430"/><path d="m294.02 349.638v113.401h-76.047v-113.418" fill="#f6e266"/><path d="m251.081 349.638v113.401h-33.108v-113.418" fill="#eab14d"/><path d="m310.464 333.593c0 30.082-24.384 54.466-54.466 54.466s-54.466-24.384-54.466-54.466c0-3.739.381-7.386 1.092-10.909 5.048-24.858 27.032-43.566 53.374-43.566s48.326 18.708 53.374 43.566c.711 3.523 1.092 7.17 1.092 10.909z" fill="#f6e266"/><path d="m272.448 385.525c-5.182 1.648-10.714 2.534-16.442 2.534-30.081 0-54.476-24.384-54.476-54.476 0-30.081 24.395-54.465 54.476-54.465 5.728 0 11.26.886 16.442 2.534-22.046 6.964-38.024 27.578-38.024 51.931s15.978 44.978 38.024 51.942z" fill="#eab14d"/><path d="m429.594 88.604h-347.191c-21.335 0-38.63-17.295-38.63-38.63v-11.34c0-21.335 17.295-38.63 38.63-38.63h347.191c21.335 0 38.63 17.295 38.63 38.63v11.34c0 21.334-17.295 38.63-38.63 38.63z" fill="#f6e266"/><path d="m190.655 88.605h-108.251c-21.335 0-38.632-17.297-38.632-38.632v-11.341c.001-21.335 17.298-38.632 38.632-38.632h108.251c-21.335 0-38.632 17.297-38.632 38.632v11.342c.001 21.334 17.297 38.631 38.632 38.631z" fill="#eab14d"/><path d="m309.372 322.684c-16.843 5.347-34.769 8.231-53.374 8.231-.381 0-.773 0-1.154-.01h-.01c-11.332-.062-22.406-1.205-33.131-3.327-6.5-1.277-12.867-2.915-19.079-4.893 5.048-24.858 27.032-43.566 53.374-43.566s48.326 18.706 53.374 43.565z" fill="#eab14d"/><path d="m432.249 141.24c0 97.341-78.911 176.252-176.253 176.252-.381 0-.773 0-1.154-.01h-.01c-11.332-.062-22.406-1.206-33.13-3.327-80.931-15.958-141.958-87.307-141.958-172.915 0-18.337 2.802-36.015 7.994-52.632h336.517c2.761 8.839 4.852 17.977 6.191 27.362 1.185 8.252 1.803 16.689 1.803 25.27z" fill="#f6e266"/><path d="m221.702 314.155c-80.931-15.958-141.958-87.307-141.958-172.915 0-18.337 2.802-36.015 7.994-52.632h336.517c2.761 8.839 4.852 17.977 6.191 27.362h-238.91c-13.841 0-25.164 11.172-25.175 25.013v.257c0 68.62 27.176 146.182 55.341 172.915z" fill="#eab14d"/><path d="m255.988 60.299-.536-.093.134-.041z" fill="#eab14d"/><path d="m362.895 440.086h-213.794c-19.858 0-35.957 16.098-35.957 35.957 0 19.858 16.098 35.957 35.957 35.957h213.794c19.858 0 35.957-16.098 35.957-35.957 0-19.858-16.098-35.957-35.957-35.957z" fill="#f6e266"/><path d="m200.256 501.467c6.511 6.5 15.494 10.529 25.425 10.529h-76.573c-9.931 0-18.924-4.028-25.435-10.529-6.5-6.511-10.528-15.493-10.528-25.424 0-19.862 16.102-35.964 35.963-35.964h76.573c-19.862 0-35.953 16.102-35.953 35.964 0 9.931 4.017 18.914 10.528 25.424z" fill="#eab14d"/><path d="m300.913 174.201-31.163-51.942c-6.229-10.382-21.276-10.382-27.504 0l-31.163 51.942c-3.047 5.079-3.047 11.423 0 16.501l31.163 51.942c6.229 10.382 21.276 10.382 27.504 0l31.163-51.942c3.047-5.078 3.047-11.422 0-16.501z" fill="#da4a54"/><path d="m255.999 250.432c-5.316 0-10.631-2.596-13.753-7.788l-31.163-51.941c-3.039-5.078-3.039-11.414 0-16.493l31.163-51.941c3.121-5.192 8.437-7.788 13.753-7.788-1.916 0-3.832 2.596-4.955 7.788l-11.229 51.941c-1.092 5.078-1.092 11.414 0 16.493l11.229 51.941c1.123 5.192 3.039 7.788 4.955 7.788z" fill="#c32430"/></g></svg>